<mxfile host="app.diagrams.net" modified="2023-10-15T16:12:20.980Z" agent="Mozilla/5.0 (Macintosh; Intel Mac OS X 10_15_7) AppleWebKit/537.36 (KHTML, like Gecko) Chrome/118.0.0.0 Safari/537.36" etag="NK9wo5WQjNqgo-Gnx8fo" version="21.5.1" type="device">
  <diagram id="R2lEEEUBdFMjLlhIrx00" name="Page-1">
    <mxGraphModel dx="1434" dy="703" grid="1" gridSize="10" guides="1" tooltips="1" connect="1" arrows="1" fold="1" page="1" pageScale="1" pageWidth="850" pageHeight="1100" math="0" shadow="0" extFonts="Permanent Marker^https://fonts.googleapis.com/css?family=Permanent+Marker">
      <root>
        <mxCell id="0" />
        <mxCell id="1" parent="0" />
        <mxCell id="4Dnp_uTF5JpmLKtMvAhE-26" style="edgeStyle=orthogonalEdgeStyle;rounded=0;orthogonalLoop=1;jettySize=auto;html=1;endArrow=none;endFill=0;" edge="1" parent="1" source="4Dnp_uTF5JpmLKtMvAhE-1" target="4Dnp_uTF5JpmLKtMvAhE-24">
          <mxGeometry relative="1" as="geometry" />
        </mxCell>
        <mxCell id="4Dnp_uTF5JpmLKtMvAhE-27" value="1" style="edgeLabel;html=1;align=center;verticalAlign=middle;resizable=0;points=[];" vertex="1" connectable="0" parent="4Dnp_uTF5JpmLKtMvAhE-26">
          <mxGeometry x="0.1143" y="3" relative="1" as="geometry">
            <mxPoint as="offset" />
          </mxGeometry>
        </mxCell>
        <mxCell id="4Dnp_uTF5JpmLKtMvAhE-1" value="Answer" style="whiteSpace=wrap;html=1;align=center;" vertex="1" parent="1">
          <mxGeometry x="110" y="140" width="100" height="40" as="geometry" />
        </mxCell>
        <mxCell id="4Dnp_uTF5JpmLKtMvAhE-2" value="AnswerOption" style="whiteSpace=wrap;html=1;align=center;" vertex="1" parent="1">
          <mxGeometry x="410" y="140" width="100" height="40" as="geometry" />
        </mxCell>
        <mxCell id="4Dnp_uTF5JpmLKtMvAhE-37" style="edgeStyle=orthogonalEdgeStyle;rounded=0;orthogonalLoop=1;jettySize=auto;html=1;entryX=0.125;entryY=0.5;entryDx=0;entryDy=0;entryPerimeter=0;endArrow=none;endFill=0;" edge="1" parent="1" source="4Dnp_uTF5JpmLKtMvAhE-3" target="4Dnp_uTF5JpmLKtMvAhE-35">
          <mxGeometry relative="1" as="geometry" />
        </mxCell>
        <mxCell id="4Dnp_uTF5JpmLKtMvAhE-40" value="n" style="edgeLabel;html=1;align=center;verticalAlign=middle;resizable=0;points=[];" vertex="1" connectable="0" parent="4Dnp_uTF5JpmLKtMvAhE-37">
          <mxGeometry x="-0.2333" y="-1" relative="1" as="geometry">
            <mxPoint as="offset" />
          </mxGeometry>
        </mxCell>
        <mxCell id="4Dnp_uTF5JpmLKtMvAhE-3" value="Question" style="whiteSpace=wrap;html=1;align=center;" vertex="1" parent="1">
          <mxGeometry x="230" y="283" width="100" height="40" as="geometry" />
        </mxCell>
        <mxCell id="4Dnp_uTF5JpmLKtMvAhE-44" style="rounded=0;orthogonalLoop=1;jettySize=auto;html=1;entryX=0;entryY=1;entryDx=0;entryDy=0;endArrow=none;endFill=0;" edge="1" parent="1" source="4Dnp_uTF5JpmLKtMvAhE-4" target="4Dnp_uTF5JpmLKtMvAhE-43">
          <mxGeometry relative="1" as="geometry" />
        </mxCell>
        <mxCell id="4Dnp_uTF5JpmLKtMvAhE-46" value="n" style="edgeLabel;html=1;align=center;verticalAlign=middle;resizable=0;points=[];" vertex="1" connectable="0" parent="4Dnp_uTF5JpmLKtMvAhE-44">
          <mxGeometry x="0.0075" relative="1" as="geometry">
            <mxPoint as="offset" />
          </mxGeometry>
        </mxCell>
        <mxCell id="4Dnp_uTF5JpmLKtMvAhE-50" style="rounded=0;orthogonalLoop=1;jettySize=auto;html=1;entryX=0.073;entryY=0.457;entryDx=0;entryDy=0;entryPerimeter=0;endArrow=none;endFill=0;" edge="1" parent="1" source="4Dnp_uTF5JpmLKtMvAhE-4" target="4Dnp_uTF5JpmLKtMvAhE-48">
          <mxGeometry relative="1" as="geometry" />
        </mxCell>
        <mxCell id="4Dnp_uTF5JpmLKtMvAhE-51" value="m" style="edgeLabel;html=1;align=center;verticalAlign=middle;resizable=0;points=[];" vertex="1" connectable="0" parent="4Dnp_uTF5JpmLKtMvAhE-50">
          <mxGeometry x="-0.1231" y="-1" relative="1" as="geometry">
            <mxPoint as="offset" />
          </mxGeometry>
        </mxCell>
        <mxCell id="4Dnp_uTF5JpmLKtMvAhE-56" style="rounded=0;orthogonalLoop=1;jettySize=auto;html=1;endArrow=none;endFill=0;" edge="1" parent="1" source="4Dnp_uTF5JpmLKtMvAhE-4" target="4Dnp_uTF5JpmLKtMvAhE-55">
          <mxGeometry relative="1" as="geometry" />
        </mxCell>
        <mxCell id="4Dnp_uTF5JpmLKtMvAhE-58" value="m" style="edgeLabel;html=1;align=center;verticalAlign=middle;resizable=0;points=[];" vertex="1" connectable="0" parent="4Dnp_uTF5JpmLKtMvAhE-56">
          <mxGeometry x="0.049" y="-1" relative="1" as="geometry">
            <mxPoint as="offset" />
          </mxGeometry>
        </mxCell>
        <mxCell id="4Dnp_uTF5JpmLKtMvAhE-4" value="Quiz" style="whiteSpace=wrap;html=1;align=center;" vertex="1" parent="1">
          <mxGeometry x="520" y="283" width="100" height="40" as="geometry" />
        </mxCell>
        <mxCell id="4Dnp_uTF5JpmLKtMvAhE-71" style="edgeStyle=orthogonalEdgeStyle;rounded=0;orthogonalLoop=1;jettySize=auto;html=1;entryX=0.5;entryY=0;entryDx=0;entryDy=0;" edge="1" parent="1" source="4Dnp_uTF5JpmLKtMvAhE-5" target="4Dnp_uTF5JpmLKtMvAhE-70">
          <mxGeometry relative="1" as="geometry" />
        </mxCell>
        <mxCell id="4Dnp_uTF5JpmLKtMvAhE-72" value="1" style="edgeLabel;html=1;align=center;verticalAlign=middle;resizable=0;points=[];" vertex="1" connectable="0" parent="4Dnp_uTF5JpmLKtMvAhE-71">
          <mxGeometry x="0.51" relative="1" as="geometry">
            <mxPoint as="offset" />
          </mxGeometry>
        </mxCell>
        <mxCell id="4Dnp_uTF5JpmLKtMvAhE-5" value="User" style="whiteSpace=wrap;html=1;align=center;" vertex="1" parent="1">
          <mxGeometry x="660" y="140" width="100" height="40" as="geometry" />
        </mxCell>
        <mxCell id="4Dnp_uTF5JpmLKtMvAhE-6" value="UserStatistic" style="whiteSpace=wrap;html=1;align=center;" vertex="1" parent="1">
          <mxGeometry x="860" y="360" width="100" height="40" as="geometry" />
        </mxCell>
        <mxCell id="4Dnp_uTF5JpmLKtMvAhE-9" style="rounded=0;orthogonalLoop=1;jettySize=auto;html=1;entryX=0.5;entryY=0;entryDx=0;entryDy=0;endArrow=none;endFill=0;" edge="1" parent="1" source="4Dnp_uTF5JpmLKtMvAhE-7" target="4Dnp_uTF5JpmLKtMvAhE-1">
          <mxGeometry relative="1" as="geometry" />
        </mxCell>
        <mxCell id="4Dnp_uTF5JpmLKtMvAhE-7" value="answer" style="ellipse;whiteSpace=wrap;html=1;align=center;" vertex="1" parent="1">
          <mxGeometry x="110" y="70" width="100" height="40" as="geometry" />
        </mxCell>
        <mxCell id="4Dnp_uTF5JpmLKtMvAhE-14" style="rounded=0;orthogonalLoop=1;jettySize=auto;html=1;endArrow=none;endFill=0;" edge="1" parent="1" source="4Dnp_uTF5JpmLKtMvAhE-13" target="4Dnp_uTF5JpmLKtMvAhE-2">
          <mxGeometry relative="1" as="geometry" />
        </mxCell>
        <mxCell id="4Dnp_uTF5JpmLKtMvAhE-13" value="isCorrect" style="ellipse;whiteSpace=wrap;html=1;align=center;" vertex="1" parent="1">
          <mxGeometry x="430" y="60" width="100" height="40" as="geometry" />
        </mxCell>
        <mxCell id="4Dnp_uTF5JpmLKtMvAhE-19" style="rounded=0;orthogonalLoop=1;jettySize=auto;html=1;endArrow=none;endFill=0;" edge="1" parent="1" source="4Dnp_uTF5JpmLKtMvAhE-16" target="4Dnp_uTF5JpmLKtMvAhE-3">
          <mxGeometry relative="1" as="geometry" />
        </mxCell>
        <mxCell id="4Dnp_uTF5JpmLKtMvAhE-16" value="question" style="ellipse;whiteSpace=wrap;html=1;align=center;" vertex="1" parent="1">
          <mxGeometry x="110" y="243" width="100" height="40" as="geometry" />
        </mxCell>
        <mxCell id="4Dnp_uTF5JpmLKtMvAhE-20" style="rounded=0;orthogonalLoop=1;jettySize=auto;html=1;entryX=0;entryY=0.75;entryDx=0;entryDy=0;endArrow=none;endFill=0;" edge="1" parent="1" source="4Dnp_uTF5JpmLKtMvAhE-18" target="4Dnp_uTF5JpmLKtMvAhE-3">
          <mxGeometry relative="1" as="geometry" />
        </mxCell>
        <mxCell id="4Dnp_uTF5JpmLKtMvAhE-18" value="file" style="ellipse;whiteSpace=wrap;html=1;align=center;" vertex="1" parent="1">
          <mxGeometry x="110" y="300" width="100" height="40" as="geometry" />
        </mxCell>
        <mxCell id="4Dnp_uTF5JpmLKtMvAhE-25" style="edgeStyle=orthogonalEdgeStyle;rounded=0;orthogonalLoop=1;jettySize=auto;html=1;entryX=0;entryY=0.5;entryDx=0;entryDy=0;endArrow=none;endFill=0;" edge="1" parent="1" source="4Dnp_uTF5JpmLKtMvAhE-24" target="4Dnp_uTF5JpmLKtMvAhE-2">
          <mxGeometry relative="1" as="geometry" />
        </mxCell>
        <mxCell id="4Dnp_uTF5JpmLKtMvAhE-28" value="1" style="edgeLabel;html=1;align=center;verticalAlign=middle;resizable=0;points=[];" vertex="1" connectable="0" parent="4Dnp_uTF5JpmLKtMvAhE-25">
          <mxGeometry x="-0.2286" y="2" relative="1" as="geometry">
            <mxPoint as="offset" />
          </mxGeometry>
        </mxCell>
        <mxCell id="4Dnp_uTF5JpmLKtMvAhE-24" value="consists&lt;br&gt;of" style="shape=rhombus;perimeter=rhombusPerimeter;whiteSpace=wrap;html=1;align=center;" vertex="1" parent="1">
          <mxGeometry x="270" y="135" width="80" height="50" as="geometry" />
        </mxCell>
        <mxCell id="4Dnp_uTF5JpmLKtMvAhE-31" style="rounded=0;orthogonalLoop=1;jettySize=auto;html=1;endArrow=none;endFill=0;" edge="1" parent="1" source="4Dnp_uTF5JpmLKtMvAhE-29" target="4Dnp_uTF5JpmLKtMvAhE-2">
          <mxGeometry relative="1" as="geometry" />
        </mxCell>
        <mxCell id="4Dnp_uTF5JpmLKtMvAhE-34" value="n" style="edgeLabel;html=1;align=center;verticalAlign=middle;resizable=0;points=[];" vertex="1" connectable="0" parent="4Dnp_uTF5JpmLKtMvAhE-31">
          <mxGeometry x="0.0417" y="-1" relative="1" as="geometry">
            <mxPoint as="offset" />
          </mxGeometry>
        </mxCell>
        <mxCell id="4Dnp_uTF5JpmLKtMvAhE-32" style="rounded=0;orthogonalLoop=1;jettySize=auto;html=1;endArrow=none;endFill=0;" edge="1" parent="1" source="4Dnp_uTF5JpmLKtMvAhE-29" target="4Dnp_uTF5JpmLKtMvAhE-3">
          <mxGeometry relative="1" as="geometry" />
        </mxCell>
        <mxCell id="4Dnp_uTF5JpmLKtMvAhE-33" value="1" style="edgeLabel;html=1;align=center;verticalAlign=middle;resizable=0;points=[];" vertex="1" connectable="0" parent="4Dnp_uTF5JpmLKtMvAhE-32">
          <mxGeometry x="-0.0339" y="-2" relative="1" as="geometry">
            <mxPoint y="1" as="offset" />
          </mxGeometry>
        </mxCell>
        <mxCell id="4Dnp_uTF5JpmLKtMvAhE-29" value="consists&lt;br&gt;of" style="shape=rhombus;perimeter=rhombusPerimeter;whiteSpace=wrap;html=1;align=center;" vertex="1" parent="1">
          <mxGeometry x="330" y="210" width="80" height="50" as="geometry" />
        </mxCell>
        <mxCell id="4Dnp_uTF5JpmLKtMvAhE-38" style="edgeStyle=orthogonalEdgeStyle;rounded=0;orthogonalLoop=1;jettySize=auto;html=1;entryX=0;entryY=0.5;entryDx=0;entryDy=0;endArrow=none;endFill=0;" edge="1" parent="1" source="4Dnp_uTF5JpmLKtMvAhE-35" target="4Dnp_uTF5JpmLKtMvAhE-4">
          <mxGeometry relative="1" as="geometry" />
        </mxCell>
        <mxCell id="4Dnp_uTF5JpmLKtMvAhE-41" value="1" style="edgeLabel;html=1;align=center;verticalAlign=middle;resizable=0;points=[];" vertex="1" connectable="0" parent="4Dnp_uTF5JpmLKtMvAhE-38">
          <mxGeometry x="-0.4333" relative="1" as="geometry">
            <mxPoint as="offset" />
          </mxGeometry>
        </mxCell>
        <mxCell id="4Dnp_uTF5JpmLKtMvAhE-35" value="consists&lt;br&gt;of" style="shape=rhombus;perimeter=rhombusPerimeter;whiteSpace=wrap;html=1;align=center;" vertex="1" parent="1">
          <mxGeometry x="380" y="278" width="80" height="50" as="geometry" />
        </mxCell>
        <mxCell id="4Dnp_uTF5JpmLKtMvAhE-45" value="1" style="rounded=0;orthogonalLoop=1;jettySize=auto;html=1;endArrow=none;endFill=0;" edge="1" parent="1" source="4Dnp_uTF5JpmLKtMvAhE-43" target="4Dnp_uTF5JpmLKtMvAhE-5">
          <mxGeometry relative="1" as="geometry" />
        </mxCell>
        <mxCell id="4Dnp_uTF5JpmLKtMvAhE-47" value="1" style="edgeLabel;html=1;align=center;verticalAlign=middle;resizable=0;points=[];" vertex="1" connectable="0" parent="4Dnp_uTF5JpmLKtMvAhE-45">
          <mxGeometry x="0.041" relative="1" as="geometry">
            <mxPoint as="offset" />
          </mxGeometry>
        </mxCell>
        <mxCell id="4Dnp_uTF5JpmLKtMvAhE-43" value="creates" style="shape=rhombus;perimeter=rhombusPerimeter;whiteSpace=wrap;html=1;align=center;" vertex="1" parent="1">
          <mxGeometry x="600" y="210" width="80" height="50" as="geometry" />
        </mxCell>
        <mxCell id="4Dnp_uTF5JpmLKtMvAhE-49" style="rounded=0;orthogonalLoop=1;jettySize=auto;html=1;entryX=0.6;entryY=0.95;entryDx=0;entryDy=0;entryPerimeter=0;endArrow=none;endFill=0;" edge="1" parent="1" source="4Dnp_uTF5JpmLKtMvAhE-48" target="4Dnp_uTF5JpmLKtMvAhE-5">
          <mxGeometry relative="1" as="geometry" />
        </mxCell>
        <mxCell id="4Dnp_uTF5JpmLKtMvAhE-52" value="n" style="edgeLabel;html=1;align=center;verticalAlign=middle;resizable=0;points=[];" vertex="1" connectable="0" parent="4Dnp_uTF5JpmLKtMvAhE-49">
          <mxGeometry x="0.0322" relative="1" as="geometry">
            <mxPoint as="offset" />
          </mxGeometry>
        </mxCell>
        <mxCell id="4Dnp_uTF5JpmLKtMvAhE-48" value="Participants" style="shape=associativeEntity;whiteSpace=wrap;html=1;align=center;" vertex="1" parent="1">
          <mxGeometry x="710" y="279.5" width="110" height="47" as="geometry" />
        </mxCell>
        <mxCell id="4Dnp_uTF5JpmLKtMvAhE-54" style="rounded=0;orthogonalLoop=1;jettySize=auto;html=1;endArrow=none;endFill=0;" edge="1" parent="1" source="4Dnp_uTF5JpmLKtMvAhE-53" target="4Dnp_uTF5JpmLKtMvAhE-4">
          <mxGeometry relative="1" as="geometry" />
        </mxCell>
        <mxCell id="4Dnp_uTF5JpmLKtMvAhE-53" value="category" style="ellipse;whiteSpace=wrap;html=1;align=center;" vertex="1" parent="1">
          <mxGeometry x="450" y="360" width="100" height="40" as="geometry" />
        </mxCell>
        <mxCell id="4Dnp_uTF5JpmLKtMvAhE-57" style="rounded=0;orthogonalLoop=1;jettySize=auto;html=1;endArrow=none;endFill=0;" edge="1" parent="1" source="4Dnp_uTF5JpmLKtMvAhE-55" target="4Dnp_uTF5JpmLKtMvAhE-6">
          <mxGeometry relative="1" as="geometry" />
        </mxCell>
        <mxCell id="4Dnp_uTF5JpmLKtMvAhE-59" value="n" style="edgeLabel;html=1;align=center;verticalAlign=middle;resizable=0;points=[];" vertex="1" connectable="0" parent="4Dnp_uTF5JpmLKtMvAhE-57">
          <mxGeometry x="0.041" y="-4" relative="1" as="geometry">
            <mxPoint as="offset" />
          </mxGeometry>
        </mxCell>
        <mxCell id="4Dnp_uTF5JpmLKtMvAhE-55" value="QuizStatistics" style="shape=associativeEntity;whiteSpace=wrap;html=1;align=center;" vertex="1" parent="1">
          <mxGeometry x="610" y="360" width="110" height="47" as="geometry" />
        </mxCell>
        <mxCell id="4Dnp_uTF5JpmLKtMvAhE-61" style="rounded=0;orthogonalLoop=1;jettySize=auto;html=1;endArrow=none;endFill=0;entryX=0.436;entryY=0.979;entryDx=0;entryDy=0;entryPerimeter=0;" edge="1" parent="1" source="4Dnp_uTF5JpmLKtMvAhE-60" target="4Dnp_uTF5JpmLKtMvAhE-55">
          <mxGeometry relative="1" as="geometry">
            <mxPoint x="630" y="410" as="targetPoint" />
          </mxGeometry>
        </mxCell>
        <mxCell id="4Dnp_uTF5JpmLKtMvAhE-60" value="points" style="ellipse;whiteSpace=wrap;html=1;align=center;" vertex="1" parent="1">
          <mxGeometry x="540" y="430" width="80" height="30" as="geometry" />
        </mxCell>
        <mxCell id="4Dnp_uTF5JpmLKtMvAhE-66" style="edgeStyle=orthogonalEdgeStyle;rounded=0;orthogonalLoop=1;jettySize=auto;html=1;entryX=0.5;entryY=1;entryDx=0;entryDy=0;endArrow=none;endFill=0;" edge="1" parent="1" source="4Dnp_uTF5JpmLKtMvAhE-62" target="4Dnp_uTF5JpmLKtMvAhE-55">
          <mxGeometry relative="1" as="geometry" />
        </mxCell>
        <mxCell id="4Dnp_uTF5JpmLKtMvAhE-62" value="start" style="ellipse;whiteSpace=wrap;html=1;align=center;" vertex="1" parent="1">
          <mxGeometry x="625" y="440" width="80" height="30" as="geometry" />
        </mxCell>
        <mxCell id="4Dnp_uTF5JpmLKtMvAhE-68" style="rounded=0;orthogonalLoop=1;jettySize=auto;html=1;endArrow=none;endFill=0;" edge="1" parent="1" source="4Dnp_uTF5JpmLKtMvAhE-67" target="4Dnp_uTF5JpmLKtMvAhE-55">
          <mxGeometry relative="1" as="geometry" />
        </mxCell>
        <mxCell id="4Dnp_uTF5JpmLKtMvAhE-67" value="duration" style="ellipse;whiteSpace=wrap;html=1;align=center;" vertex="1" parent="1">
          <mxGeometry x="720" y="430" width="80" height="30" as="geometry" />
        </mxCell>
        <mxCell id="4Dnp_uTF5JpmLKtMvAhE-73" style="rounded=0;orthogonalLoop=1;jettySize=auto;html=1;endArrow=none;endFill=0;entryX=0.5;entryY=0;entryDx=0;entryDy=0;" edge="1" parent="1" source="4Dnp_uTF5JpmLKtMvAhE-70" target="4Dnp_uTF5JpmLKtMvAhE-6">
          <mxGeometry relative="1" as="geometry">
            <mxPoint x="890" y="350" as="targetPoint" />
          </mxGeometry>
        </mxCell>
        <mxCell id="4Dnp_uTF5JpmLKtMvAhE-74" value="n" style="edgeLabel;html=1;align=center;verticalAlign=middle;resizable=0;points=[];" vertex="1" connectable="0" parent="4Dnp_uTF5JpmLKtMvAhE-73">
          <mxGeometry x="-0.2642" y="1" relative="1" as="geometry">
            <mxPoint y="-1" as="offset" />
          </mxGeometry>
        </mxCell>
        <mxCell id="4Dnp_uTF5JpmLKtMvAhE-70" value="has" style="shape=rhombus;perimeter=rhombusPerimeter;whiteSpace=wrap;html=1;align=center;" vertex="1" parent="1">
          <mxGeometry x="870" y="229.5" width="80" height="50" as="geometry" />
        </mxCell>
        <mxCell id="4Dnp_uTF5JpmLKtMvAhE-81" style="rounded=0;orthogonalLoop=1;jettySize=auto;html=1;endArrow=none;endFill=0;" edge="1" parent="1" source="4Dnp_uTF5JpmLKtMvAhE-75" target="4Dnp_uTF5JpmLKtMvAhE-5">
          <mxGeometry relative="1" as="geometry" />
        </mxCell>
        <mxCell id="4Dnp_uTF5JpmLKtMvAhE-75" value="firstName" style="ellipse;whiteSpace=wrap;html=1;align=center;" vertex="1" parent="1">
          <mxGeometry x="610" y="80" width="80" height="30" as="geometry" />
        </mxCell>
        <mxCell id="4Dnp_uTF5JpmLKtMvAhE-82" style="rounded=0;orthogonalLoop=1;jettySize=auto;html=1;endArrow=none;endFill=0;" edge="1" parent="1" source="4Dnp_uTF5JpmLKtMvAhE-76" target="4Dnp_uTF5JpmLKtMvAhE-5">
          <mxGeometry relative="1" as="geometry" />
        </mxCell>
        <mxCell id="4Dnp_uTF5JpmLKtMvAhE-76" value="lastName" style="ellipse;whiteSpace=wrap;html=1;align=center;" vertex="1" parent="1">
          <mxGeometry x="700" y="80" width="80" height="30" as="geometry" />
        </mxCell>
        <mxCell id="4Dnp_uTF5JpmLKtMvAhE-83" style="rounded=0;orthogonalLoop=1;jettySize=auto;html=1;endArrow=none;endFill=0;" edge="1" parent="1" source="4Dnp_uTF5JpmLKtMvAhE-77" target="4Dnp_uTF5JpmLKtMvAhE-5">
          <mxGeometry relative="1" as="geometry" />
        </mxCell>
        <mxCell id="4Dnp_uTF5JpmLKtMvAhE-77" value="email" style="ellipse;whiteSpace=wrap;html=1;align=center;" vertex="1" parent="1">
          <mxGeometry x="790" y="80" width="80" height="30" as="geometry" />
        </mxCell>
        <mxCell id="4Dnp_uTF5JpmLKtMvAhE-80" style="rounded=0;orthogonalLoop=1;jettySize=auto;html=1;endArrow=none;endFill=0;" edge="1" parent="1" source="4Dnp_uTF5JpmLKtMvAhE-78" target="4Dnp_uTF5JpmLKtMvAhE-5">
          <mxGeometry relative="1" as="geometry" />
        </mxCell>
        <mxCell id="4Dnp_uTF5JpmLKtMvAhE-78" value="password" style="ellipse;whiteSpace=wrap;html=1;align=center;" vertex="1" parent="1">
          <mxGeometry x="560" y="120" width="80" height="30" as="geometry" />
        </mxCell>
        <mxCell id="4Dnp_uTF5JpmLKtMvAhE-84" style="rounded=0;orthogonalLoop=1;jettySize=auto;html=1;endArrow=none;endFill=0;" edge="1" parent="1" source="4Dnp_uTF5JpmLKtMvAhE-79" target="4Dnp_uTF5JpmLKtMvAhE-5">
          <mxGeometry relative="1" as="geometry" />
        </mxCell>
        <mxCell id="4Dnp_uTF5JpmLKtMvAhE-79" value="role" style="ellipse;whiteSpace=wrap;html=1;align=center;" vertex="1" parent="1">
          <mxGeometry x="860" y="110" width="80" height="30" as="geometry" />
        </mxCell>
      </root>
    </mxGraphModel>
  </diagram>
</mxfile>
